<?xml version="1.0" standalone="no"?>
<!DOCTYPE svg PUBLIC "-//W3C//DTD SVG 20010904//EN"
 "http://www.w3.org/TR/2001/REC-SVG-20010904/DTD/svg10.dtd">
<svg version="1.0" xmlns="http://www.w3.org/2000/svg"
 width="197.000000pt" height="197.000000pt" viewBox="0 0 197.000000 197.000000"
 preserveAspectRatio="xMidYMid meet">
<metadata>
Created by potrace 1.11, written by Peter Selinger 2001-2013
</metadata>
<g transform="translate(0.000000,197.000000) scale(0.100000,-0.100000)"
fill="#000000" stroke="none">
<path d="M351 1523 c-315 -438 -321 -447 -321 -495 0 -47 5 -55 204 -325 l205
-278 431 -182 c416 -176 537 -223 525 -203 -4 6 0 10 8 10 7 0 23 10 35 23 36
38 482 864 482 893 0 24 -80 677 -83 680 -1 1 -225 74 -498 163 -483 157 -498
161 -581 161 l-86 0 -321 -447z m730 263 c675 -181 627 -165 616 -207 -10 -37
-515 -892 -539 -912 -15 -12 -30 -16 -47 -12 -52 13 -956 368 -970 381 -11 10
-12 19 -4 36 12 26 520 728 557 771 14 15 35 27 48 27 13 0 166 -38 339 -84z
m710 -483 c21 -142 39 -278 39 -302 0 -37 -26 -92 -187 -395 -206 -389 -242
-454 -251 -460 -4 -2 -52 100 -106 226 l-99 231 25 51 c21 42 471 818 518 893
8 12 16 20 18 18 2 -2 21 -119 43 -262z m-1246 -474 c226 -88 445 -174 487
-191 43 -16 87 -37 98 -46 22 -18 222 -455 210 -460 -3 -1 -193 79 -421 178
-481 209 -416 161 -641 467 -133 180 -155 213 -145 213 2 0 187 -72 412 -161z"/>
<path d="M900 1714 c-194 -53 -395 -210 -476 -372 -24 -49 -29 -71 -32 -154
-5 -118 13 -164 86 -229 78 -68 164 -98 283 -99 180 0 359 72 494 201 33 31
75 64 93 73 17 9 32 23 32 30 0 7 16 47 35 89 31 67 35 85 35 159 0 140 -51
213 -199 285 -50 25 -68 28 -176 30 -83 2 -137 -2 -175 -13z m283 -44 c82 -25
157 -83 197 -153 29 -49 31 -57 26 -124 -7 -93 -45 -189 -72 -185 -25 5 -32
14 -16 19 19 7 14 31 -8 38 -12 4 -62 13 -113 20 -51 8 -207 35 -347 60 -265
48 -256 48 -339 17 -35 -13 77 121 148 178 50 39 149 100 163 100 5 0 23 8 41
17 70 37 222 43 320 13z m-540 -347 c4 -3 -7 -30 -23 -58 -17 -29 -30 -60 -30
-69 0 -11 -9 -16 -30 -16 -35 0 -35 1 26 98 33 50 44 59 57 45z m127 -45 c-11
-13 -28 -44 -38 -70 -12 -34 -22 -48 -35 -48 -18 0 -18 2 3 33 12 17 29 49 38
69 11 23 24 38 35 38 16 0 16 -2 -3 -22z m62 -10 c-22 -22 -14 -40 16 -36 21
2 27 8 26 26 0 18 4 22 20 20 17 -2 20 -9 18 -32 -2 -17 -10 -45 -17 -63 -14
-33 -16 -34 -67 -31 -60 3 -61 6 -27 82 11 25 25 46 31 46 9 0 9 -3 0 -12z
m166 -30 c-20 -60 -42 -98 -61 -104 -31 -10 -31 2 -1 71 23 52 33 65 50 65 21
0 21 -2 12 -32z m79 6 c6 -17 -25 -49 -36 -38 -3 3 3 12 14 20 17 13 18 16 5
24 -10 7 -11 10 -2 10 7 0 15 -7 19 -16z m131 -46 c-2 -29 -5 -55 -8 -58 -3
-3 -11 -16 -17 -30 -11 -23 -12 -21 -10 20 1 25 6 48 10 51 5 4 7 17 5 30 -4
24 -4 23 -18 -6 -8 -16 -20 -36 -27 -43 -7 -8 -18 -22 -23 -33 -6 -10 -19 -19
-30 -19 -22 0 -35 16 -20 25 6 3 26 31 45 61 30 46 39 54 66 54 l30 0 -3 -52z
m-181 -40 c1 -43 1 -43 -6 -8 -6 31 -5 50 3 50 1 0 3 -19 3 -42z m248 -47 c-3
-6 -11 -11 -16 -11 -5 0 -4 6 3 14 14 16 24 13 13 -3z m-625 -6 c74 -8 183
-22 242 -30 59 -9 151 -19 205 -23 l98 -8 -52 -27 c-28 -14 -55 -31 -58 -37
-4 -6 -15 -8 -25 -5 -10 3 -27 1 -37 -5 -50 -28 -79 -35 -192 -44 -41 -3 -82
-8 -92 -11 -11 -4 -19 -2 -19 3 0 5 -26 17 -59 26 -71 20 -130 61 -162 113
-13 21 -27 40 -31 41 -15 7 3 22 25 22 12 0 83 -7 157 -15z"/>
<path d="M703 1558 c-28 -32 -83 -115 -83 -126 0 -8 93 -32 122 -32 19 0 6 20
-17 26 -32 8 -32 17 6 76 31 47 33 78 6 78 -7 0 -23 -10 -34 -22z"/>
<path d="M820 1508 c-23 -32 -30 -51 -28 -77 4 -50 38 -61 102 -35 38 16 48
26 60 59 8 22 17 48 21 58 5 12 2 17 -9 17 -9 0 -30 -21 -46 -47 -30 -50 -61
-86 -67 -79 -2 2 8 31 23 65 15 34 25 63 23 65 -2 2 -14 7 -26 10 -18 6 -28
-1 -53 -36z"/>
<path d="M976 1468 c-14 -24 -29 -55 -35 -70 -9 -23 -7 -28 10 -33 11 -4 40
-5 64 -4 34 2 48 -1 58 -16 18 -24 67 -15 114 21 35 27 42 54 21 99 -16 36
-42 31 -89 -16 -37 -37 -39 -38 -25 -10 29 55 16 71 -61 71 -27 0 -36 -6 -57
-42z m67 16 c7 -8 -28 -80 -44 -89 -20 -13 -20 3 3 49 22 45 29 52 41 40z
m114 -74 c-11 -27 -25 -50 -29 -50 -5 0 -1 17 8 38 9 20 18 43 21 50 3 6 9 12
13 12 5 0 -1 -22 -13 -50z"/>
<path d="M1260 1447 c-28 -14 -39 -45 -18 -52 70 -24 69 -24 58 -45 -15 -29
-40 -37 -52 -17 -12 23 -51 23 -46 0 3 -18 36 -30 101 -35 42 -3 42 -3 45 33
2 29 -2 41 -22 57 -16 12 -26 30 -26 46 0 29 -5 31 -40 13z"/>
<path d="M1310 1450 c0 -5 6 -10 14 -10 8 0 16 -6 19 -12 3 -10 7 -10 17 -1 7
6 9 16 6 22 -9 14 -56 15 -56 1z"/>
<path d="M807 1213 c-10 -10 -8 -43 2 -43 24 0 61 21 61 35 0 15 -50 22 -63 8z"/>
<path d="M970 1244 c0 -8 5 -12 10 -9 6 4 8 11 5 16 -9 14 -15 11 -15 -7z"/>
<path d="M1672 1395 c-38 -47 -64 -129 -60 -191 3 -42 6 -49 25 -52 47 -7 109
138 101 233 -4 53 -27 56 -66 10z"/>
<path d="M1754 1023 c-25 -26 -62 -111 -69 -164 -5 -35 -3 -48 9 -58 22 -18
40 -2 73 63 32 63 45 176 20 176 -9 0 -23 -8 -33 -17z"/>
<path d="M1568 933 c-44 -53 -81 -153 -76 -205 7 -71 71 -34 111 63 20 48 30
113 22 139 -8 25 -37 26 -57 3z"/>
<path d="M1340 813 c-48 -54 -73 -118 -74 -187 -1 -45 3 -61 16 -69 54 -35
166 203 128 272 -16 30 -33 26 -70 -16z"/>
<path d="M1463 488 c-48 -51 -95 -195 -74 -227 31 -48 125 96 126 193 0 59
-18 71 -52 34z"/>
<path d="M237 904 c-3 -4 0 -18 8 -33 42 -79 245 -172 245 -112 0 25 -78 93
-143 126 -49 24 -96 32 -110 19z"/>
<path d="M855 656 c-14 -10 -15 -17 -6 -33 43 -82 271 -177 271 -114 0 28 -67
88 -135 121 -77 36 -107 43 -130 26z"/>
<path d="M473 574 c-16 -41 175 -160 217 -134 20 12 -4 44 -64 84 -45 30 -123
66 -143 66 -2 0 -6 -7 -10 -16z"/>
<path d="M1020 332 c0 -38 114 -116 202 -137 21 -5 29 -3 34 10 14 36 -116
128 -202 142 -29 5 -34 3 -34 -15z"/>
</g>
</svg>
