<?xml version="1.0" encoding="UTF-8" standalone="no"?>
<!-- Created with Inkscape (http://www.inkscape.org/) -->

<svg
   xmlns:dc="http://purl.org/dc/elements/1.1/"
   xmlns:cc="http://creativecommons.org/ns#"
   xmlns:rdf="http://www.w3.org/1999/02/22-rdf-syntax-ns#"
   xmlns:svg="http://www.w3.org/2000/svg"
   xmlns="http://www.w3.org/2000/svg"
   xmlns:sodipodi="http://sodipodi.sourceforge.net/DTD/sodipodi-0.dtd"
   xmlns:inkscape="http://www.inkscape.org/namespaces/inkscape"
   sodipodi:docname="open.svg"
   inkscape:version="0.92.2 (5c3e80d, 2017-08-06)"
   id="svg8"
   version="1.1"
   viewBox="0 0 122 122"
   height="122mm"
   width="122mm">
  <sodipodi:namedview
     inkscape:window-maximized="1"
     inkscape:window-y="-9"
     inkscape:window-x="-9"
     inkscape:window-height="1001"
     inkscape:window-width="1920"
     showguides="false"
     showgrid="false"
     inkscape:current-layer="layer1"
     inkscape:document-units="mm"
     inkscape:cy="133.1095"
     inkscape:cx="-257.701"
     inkscape:zoom="0.5"
     inkscape:pageshadow="2"
     inkscape:pageopacity="0.0"
     borderopacity="1.0"
     bordercolor="#666666"
     pagecolor="#ffffff"
     id="base" />
  <defs
     id="defs2" />
  <metadata
     id="metadata5">
    <rdf:RDF>
      <cc:Work
         rdf:about="">
        <dc:format>image/svg+xml</dc:format>
        <dc:type
           rdf:resource="http://purl.org/dc/dcmitype/StillImage" />
        <dc:title />
      </cc:Work>
    </rdf:RDF>
  </metadata>
  <g
     inkscape:label="Livello 1"
     inkscape:groupmode="layer"
     id="layer1"
     transform="translate(0,-175)">
    <path
       id="path816"
       d="m 31.598356,247.91638 h -5.603324 c -3.035039,0 -5.504361,2.46909 -5.504361,5.50437 v 14.71482 c 0,3.03529 2.469082,5.50438 5.504361,5.50438 h 5.603324 c 3.035279,0 5.50461,-2.46909 5.50461,-5.50438 v -14.71482 c 0,-3.03504 -2.469331,-5.50437 -5.50461,-5.50437 z m 0.617272,20.21919 c 0,0.33454 -0.282729,0.61703 -0.617272,0.61703 h -5.603324 c -0.334543,0 -0.617033,-0.28249 -0.617033,-0.61703 v -14.71482 c 0,-0.33454 0.28249,-0.61702 0.617033,-0.61702 h 5.603324 c 0.334543,0 0.617272,0.28248 0.617272,0.61702 z m 54.84322,-18.9739 7.151879,12.70931 V 250.3603 c 0,-1.3494 1.094285,-2.44368 2.443675,-2.44368 1.349398,0 2.443666,1.09428 2.443666,2.44368 v 20.83647 c 0,1.11114 -0.749474,2.08225 -1.824192,2.36401 -0.206246,0.054 -0.414204,0.0799 -0.61972,0.0799 -0.866769,0 -1.689062,-0.46309 -2.129413,-1.24555 l -7.151883,-12.7093 v 11.51067 c 0,1.34941 -1.094271,2.44368 -2.443665,2.44368 -1.349393,0 -2.443663,-1.09427 -2.443663,-2.44368 v -20.83644 c 0,-1.11114 0.749466,-2.08226 1.824193,-2.36401 1.076195,-0.28127 2.204435,0.19768 2.749123,1.16563 z M 107.55633,234.55633 H 88.746202 L 59.91142,188.15391 C 59.466674,187.4384 58.684697,187.0022 57.842124,187 c -0.0019,0 -0.0046,0 -0.0065,0 -0.840136,0 -1.621623,0.4318 -2.068807,1.1434 l -29.17458,46.41293 H 12.443674 C 11.09403,234.55633 10,235.65061 10,237.00001 v 47.55632 C 10,285.90573 11.09403,287 12.443674,287 H 107.55633 C 108.90572,287 110,285.90573 110,284.55633 v -47.55632 c 0,-1.3494 -1.09428,-2.44368 -2.44367,-2.44368 z M 57.823791,194.05439 82.992102,234.55633 H 32.364687 Z M 105.11267,282.1129 H 14.887338 v -42.66923 h 13.013016 c 0.02642,4.9e-4 0.05274,4.9e-4 0.07943,0 h 59.369627 c 0.0266,7.3e-4 0.05403,7.3e-4 0.08109,0 H 105.11239 V 282.1129 Z M 52.00371,247.91638 h -8.403772 c -1.349634,0 -2.443664,1.09428 -2.443664,2.44368 l -2.5e-4,20.83646 c 0,1.3494 1.094031,2.44368 2.443674,2.44368 1.349394,0 2.443664,-1.09428 2.443664,-2.44368 v -5.10532 h 3.41869 c 4.58017,0 8.306268,-3.72612 8.306268,-8.30604 v -4.1044 c 2.49e-4,-3.17849 -2.585888,-5.76438 -5.76461,-5.76438 z m 0.877521,9.86878 c 0,1.88504 -1.53364,3.41869 -3.41893,3.41869 h -3.41869 v -8.40012 h 5.960099 c 0.475538,0 0.877281,0.40173 0.877281,0.87703 v 4.1044 z m 13.827494,-4.98143 v 5.53101 h 3.421618 c 1.349394,0 2.443674,1.09427 2.443674,2.44367 0,1.34939 -1.09428,2.44368 -2.443674,2.44368 h -3.421618 v 5.53076 h 9.281294 c 1.349393,0 2.443664,1.09427 2.443664,2.44367 0,1.3494 -1.094271,2.44368 -2.443664,2.44368 H 64.265052 c -1.349394,0 -2.443665,-1.09428 -2.443665,-2.44368 v -20.83646 c 0,-1.3494 1.094271,-2.44368 2.443665,-2.44368 h 11.724967 c 1.349393,0 2.443664,1.09428 2.443664,2.44368 0,1.34939 -1.094271,2.44367 -2.443664,2.44367 z"
       inkscape:connector-curvature="0"
       style="fill:#101010;fill-opacity:1;stroke-width:0.244367" />
  </g>
</svg>
