<?xml version="1.0" encoding="UTF-8" standalone="no"?>
<!-- Created with Inkscape (http://www.inkscape.org/) -->

<svg
   xmlns:dc="http://purl.org/dc/elements/1.1/"
   xmlns:cc="http://creativecommons.org/ns#"
   xmlns:rdf="http://www.w3.org/1999/02/22-rdf-syntax-ns#"
   xmlns:svg="http://www.w3.org/2000/svg"
   xmlns="http://www.w3.org/2000/svg"
   xmlns:sodipodi="http://sodipodi.sourceforge.net/DTD/sodipodi-0.dtd"
   xmlns:inkscape="http://www.inkscape.org/namespaces/inkscape"
   sodipodi:docname="people.svg"
   inkscape:version="0.92.1 r15371"
   id="svg8"
   version="1.1"
   viewBox="0 0 200 200"
   height="200mm"
   width="200mm">
  <sodipodi:namedview
     inkscape:window-maximized="1"
     inkscape:window-y="-8"
     inkscape:window-x="1912"
     inkscape:window-height="1017"
     inkscape:window-width="1920"
     showguides="false"
     showgrid="false"
     inkscape:current-layer="layer1"
     inkscape:document-units="mm"
     inkscape:cy="384.5736"
     inkscape:cx="383.50731"
     inkscape:zoom="1"
     inkscape:pageshadow="2"
     inkscape:pageopacity="0.0"
     borderopacity="1.0"
     bordercolor="#666666"
     pagecolor="#ffffff"
     id="base" />
  <defs
     id="defs2" />
  <metadata
     id="metadata5">
    <rdf:RDF>
      <cc:Work
         rdf:about="">
        <dc:format>image/svg+xml</dc:format>
        <dc:type
           rdf:resource="http://purl.org/dc/dcmitype/StillImage" />
        <dc:title></dc:title>
      </cc:Work>
    </rdf:RDF>
  </metadata>
  <g
     inkscape:label="Livello 1"
     inkscape:groupmode="layer"
     id="layer1"
     transform="translate(0,-97)">
    <path
       inkscape:connector-curvature="0"
       class="st1"
       d="m 188.02883,261.66739 c -0.50948,-0.25476 -3.05686,-0.44579 -6.49582,-0.63686 -0.50949,-1.59212 -1.21002,-2.61106 -1.84685,-2.8021 -1.65581,-0.50949 -2.61107,0.44577 -3.12055,2.54737 -10.18952,-0.4458 -23.37223,-0.76421 -23.37223,-0.76421 -0.63683,-0.12733 -1.21001,-0.25473 -1.78316,-0.25473 0.82791,-8.27902 -1.46474,-15.6664 -6.94162,-16.43062 -6.55951,-0.89159 -10.89007,3.2479 -7.83321,8.53371 3.05686,5.28582 6.75058,2.35634 6.1774,-0.57314 -0.57314,-2.92951 -3.63,-1.08263 -3.43896,-2.35634 0.19111,-1.27369 4.5216,-3.05685 6.36847,-0.38211 1.40105,2.03792 1.27368,6.94162 0.50946,11.39953 -2.67475,-0.63683 -10.95373,-2.80212 -21.58905,-6.75055 -1.97423,1.21001 -4.5853,2.67475 -7.64215,4.20318 6.75055,2.61107 11.01743,3.75739 11.01743,3.75739 -4.20318,-0.95528 -8.21532,-2.03792 -12.10006,-3.24793 -2.73844,1.2737 -5.73162,2.61109 -8.85216,3.69372 11.5269,3.75739 24.13646,6.43213 37.76494,7.32373 0,8.34267 3.63001,22.28958 20.88852,19.42379 11.39953,-1.91055 15.60271,-9.87111 16.55799,-17.19483 2.03791,0 3.56634,-0.12734 4.33055,-0.25476 4.52161,-0.89156 3.43898,-8.34267 1.40106,-9.23424 z m -26.49278,20.69746 c -6.24107,0.4458 -10.95374,-4.84002 -11.39953,-12.03636 5.98634,0.25472 17.13114,0.70052 25.60119,0.8279 -0.95526,6.81423 -7.00531,10.699 -14.20166,11.20846 z"
       style="fill:#cccccc;stroke-width:0.63684541;fill-opacity:1"
       id="path4864" />
    <path
       inkscape:connector-curvature="0"
       class="st1"
       d="m 82.31249,189.70385 c -1.146322,-0.12733 -1.464765,4.71266 -1.082658,5.7953 0.382108,1.08263 2.929506,2.73843 3.821073,1.84684 0.891592,-0.89158 1.464765,-4.33056 0.891592,-5.09477 -0.509484,-0.70053 -1.783159,-2.35633 -3.630007,-2.54737 z"
       style="fill:#cccccc;stroke-width:0.63684541;fill-opacity:1"
       id="path5008" />
    <path
       inkscape:connector-curvature="0"
       class="st1"
       d="m 88.489871,192.63333 c -0.382107,0.3821 -1.082634,3.82108 -0.191114,5.47688 0.891592,1.65581 3.821072,1.97422 4.521599,1.08263 0.700525,-0.89159 1.974224,-4.52159 0.700525,-5.47688 -1.21001,-0.89156 -4.330532,-1.78316 -5.031083,-1.08263 z"
       style="fill:#cccccc;stroke-width:0.63684541;fill-opacity:1"
       id="path5010" />
    <path
       inkscape:connector-curvature="0"
       class="st1"
       d="m 96.132016,193.71596 c -0.573149,1.33739 -0.891568,5.09477 0,5.98636 0.891592,0.89157 4.712664,0.38211 5.285834,-0.3821 0.57315,-0.70053 0.57315,-3.82107 -0.3821,-4.90371 -0.8916,-1.08266 -4.39425,-1.97422 -4.903734,-0.70055 z"
       style="fill:#cccccc;stroke-width:0.63684541;fill-opacity:1"
       id="path5012" />
    <path
       inkscape:connector-curvature="0"
       class="st1"
       d="m 122.68848,189.70385 c 1.14633,-0.12733 1.46474,4.71266 1.08263,5.7953 -0.38211,1.08263 -2.92948,2.73843 -3.82107,1.84684 -0.89159,-0.89158 -1.46474,-4.33056 -0.89159,-5.09477 0.57317,-0.70053 1.84687,-2.35633 3.63003,-2.54737 z"
       style="fill:#cccccc;stroke-width:0.63684541;fill-opacity:1"
       id="path5014" />
    <path
       inkscape:connector-curvature="0"
       class="st1"
       d="m 116.51108,192.63333 c 0.3821,0.3821 1.08263,3.82108 0.19111,5.47688 -0.8916,1.65581 -3.82108,1.97422 -4.52162,1.08263 -0.70053,-0.89159 -1.97421,-4.52159 -0.70053,-5.47688 1.21001,-0.89156 4.33055,-1.78316 5.03108,-1.08263 z"
       style="fill:#cccccc;stroke-width:0.63684541;fill-opacity:1"
       id="path5016" />
    <path
       inkscape:connector-curvature="0"
       class="st1"
       d="m 83.77723,198.81073 c -0.382107,-0.3821 -1.655806,-0.57315 -1.655806,0 0,0.57318 1.273699,3.24793 1.974225,4.01214 0.764214,0.70053 0.382108,-3.31161 -0.318419,-4.01214 z"
       style="fill:#cccccc;stroke-width:0.63684541;fill-opacity:1"
       id="path5018" />
    <path
       inkscape:connector-curvature="0"
       class="st1"
       d="m 87.407237,200.65758 c -0.891567,0.12733 -1.846847,1.65581 -0.573148,3.05686 1.273675,1.46474 2.929481,3.05686 4.330533,2.35633 1.464764,-0.70052 1.082657,-3.05686 0.700549,-4.01211 -0.254753,-0.8916 -2.802127,-1.59212 -4.457934,-1.40108 z"
       style="fill:#cccccc;stroke-width:0.63684541;fill-opacity:1"
       id="path5020" />
    <path
       inkscape:connector-curvature="0"
       class="st1"
       d="m 95.240448,202.44077 c -0.95528,0.31842 -1.273699,3.43896 -0.382107,4.33053 0.891568,0.89159 5.476859,1.2737 5.795299,0.70053 0.38211,-0.57315 0.89157,-3.63001 -0.19111,-4.33054 -1.082638,-0.70052 -3.438971,-1.21001 -5.22213,-0.70052 z"
       style="fill:#cccccc;stroke-width:0.63684541;fill-opacity:1"
       id="path5022" />
    <path
       inkscape:connector-curvature="0"
       class="st1"
       d="m 122.17899,198.81073 c 0.38211,-0.3821 1.65582,-0.57315 1.65582,0 0,0.57318 -1.27371,3.24793 -1.97424,4.01214 -0.76421,0.70053 -0.3821,-3.31161 0.31842,-4.01214 z"
       style="fill:#cccccc;stroke-width:0.63684541;fill-opacity:1"
       id="path5024" />
    <path
       inkscape:connector-curvature="0"
       class="st1"
       d="m 118.54899,200.65758 c 0.89157,0.12733 1.84684,1.65581 0.57315,3.05686 -1.27368,1.46474 -2.92948,3.05686 -4.33053,2.35633 -1.46477,-0.70052 -1.08266,-3.05686 -0.70056,-4.01211 0.31845,-0.8916 2.86582,-1.59212 4.45794,-1.40108 z"
       style="fill:#cccccc;stroke-width:0.63684541;fill-opacity:1"
       id="path5026" />
    <path
       inkscape:connector-curvature="0"
       class="st1"
       d="m 110.77947,202.44077 c 0.95528,0.31842 1.2737,3.43896 0.3821,4.33053 -0.89159,0.89159 -5.47687,1.2737 -5.79529,0.70053 -0.3821,-0.57315 -0.89157,-3.63001 0.19112,-4.33054 1.01894,-0.70052 3.37527,-1.21001 5.22212,-0.70052 z"
       style="fill:#cccccc;stroke-width:0.63684541;fill-opacity:1"
       id="path5028" />
    <path
       inkscape:connector-curvature="0"
       class="st1"
       d="m 187.83777,184.35435 c -17.44957,15.53902 -44.38811,15.53902 -44.38811,15.53902 -14.77483,40.24864 -81.64361,57.95295 -90.177322,60.11822 -0.764215,-4.45792 -0.827903,-9.36165 0.50946,-11.39953 1.846848,-2.73844 6.177405,-0.8916 6.368471,0.38211 0.191114,1.27367 -2.929505,-0.57318 -3.438966,2.35633 -0.573173,2.92948 3.056859,5.79527 6.177381,0.57315 3.056858,-5.28582 -1.273675,-9.42531 -7.833187,-8.53375 -5.476878,0.76422 -7.769523,8.15164 -6.94162,16.43062 -0.509484,0.0638 -1.146321,0.12733 -1.783159,0.25476 0,0 -13.182713,0.31842 -23.372232,0.76421 -0.573172,-2.1016 -1.528428,-3.05686 -3.120546,-2.5474 -0.636837,0.19111 -1.337363,1.21001 -1.846847,2.80213 -3.502654,0.19112 -5.986339,0.4458 -6.495824,0.63683 -1.9742245,0.8916 -3.0568578,8.3427 1.464741,9.23426 0.764214,0.12734 2.292643,0.25476 4.330557,0.25476 0.955256,7.26004 5.158435,15.2843 16.557965,17.19483 17.194827,2.8658 20.824858,-11.01745 20.888546,-19.42381 89.222032,-6.11372 133.100692,-84.63674 133.100692,-84.63674 z m -149.849723,98.0105 c -7.196373,-0.50946 -13.246401,-4.39423 -14.201657,-11.20846 8.533713,-0.12734 19.678512,-0.57318 25.601186,-0.8279 -0.445795,7.26003 -5.158459,12.48216 -11.399529,12.03636 z M 71.486109,261.2216 c 0,0 51.520781,-14.20166 82.280441,-53.43134 0.0638,0 -21.46169,39.5481 -82.280441,53.43134 z"
       style="fill:#cccccc;stroke-width:0.63684541;fill-opacity:1"
       id="path5030" />
    <path
       inkscape:connector-curvature="0"
       class="st1"
       d="M 85.496701,244.79098 C 56.774968,228.16931 45.693857,207.85393 45.693857,207.85393 c 12.291121,15.6664 27.89383,27.32068 42.222864,35.72704 2.292645,-1.21 4.5216,-2.54737 6.623201,-4.0758 -16.557989,-9.48902 -32.224387,-22.48066 -38.465481,-39.54811 0,0 -27.002238,0 -44.38813,-15.53902 0,0 21.716449,38.84756 65.658784,64.00295 2.03789,-0.89156 4.967395,-2.10158 8.151606,-3.63001 z"
       style="fill:#cccccc;stroke-width:0.63684541;fill-opacity:1"
       id="path5032" />
    <path
       inkscape:connector-curvature="0"
       class="st1"
       d="m 74.797698,190.08595 c -2.674751,0.8916 -1.146322,22.09853 10.890068,27.76646 11.972679,5.73161 30.695924,3.82107 35.727014,0.25475 5.03109,-3.56634 10.57166,-11.84532 10.57166,-30.25016 0,-5.98636 -5.28584,3.2479 -5.28584,9.23426 0,5.98635 -7.26004,11.97268 -20.95221,11.71795 -13.692177,-0.25473 -18.404841,-1.6558 -22.608021,-5.98634 -4.139492,-4.26687 -4.967395,-13.81955 -8.342671,-12.73692 z"
       style="fill:#cccccc;stroke-width:0.63684541;fill-opacity:1"
       id="path5034" />
    <path
       inkscape:connector-curvature="0"
       class="st1"
       d="m 108.86893,193.71596 c 0.57318,1.33739 0.8916,5.09477 0,5.98636 -0.89159,0.89157 -4.71266,0.38211 -5.28581,-0.3821 -0.57318,-0.70053 -0.57318,-3.82107 0.38211,-4.90371 0.89159,-1.08266 4.39422,-1.97422 4.9037,-0.70055 z"
       style="fill:#cccccc;stroke-width:0.63684541;fill-opacity:1"
       id="path5036" />
    <path
       inkscape:connector-curvature="0"
       class="st1"
       d="m 144.27753,160.91843 c 4.07583,-1.33737 5.98636,-14.20166 3.24793,-30.82331 -2.73844,-16.62168 -16.36693,-27.257 -43.62392,-27.257 -27.256994,0 -41.14021,8.72479 -45.534454,20.69748 -4.394222,11.97271 -3.566319,40.05758 3.566342,37.89231 7.068973,-2.16527 9.807412,-19.36009 9.807412,-19.36009 1.655806,4.90371 -0.827903,17.19482 -4.903706,20.69745 -4.075804,3.56635 -10.062166,7.8969 -3.2479,14.45641 6.814242,6.55949 16.048505,0.82789 17.449557,2.48369 1.337364,1.6558 0.827903,9.23426 4.330557,10.38058 10.826356,3.31159 33.243322,1.08264 35.727012,-1.08263 2.48371,-2.16529 1.65581,-11.1448 5.47689,-11.46322 3.82107,-0.25475 17.44956,1.08264 17.95904,-5.15846 0.57315,-6.24106 -2.16529,-7.64214 -8.15163,-12.80058 -5.98634,-5.15846 -3.2479,-16.36692 -3.2479,-16.36692 -0.0638,5.73161 7.06897,19.10537 11.14477,17.70429 z m -55.08711,4.39424 c -6.241093,5.47686 -13.373754,2.48369 -14.711141,-1.91053 -1.337363,-4.33056 7.323727,-22.41698 15.539021,-18.78695 8.724802,3.75739 5.476879,15.2206 -0.82788,20.69748 z m 21.27063,16.0485 c -1.33739,1.08264 -4.33055,1.08264 -5.47687,-0.8279 -1.08264,-1.91053 -2.16527,-2.73843 -3.82108,1.08264 -1.655783,3.82107 -2.99317,1.91053 -4.648977,-0.82791 -1.655782,-2.73843 1.655807,-14.71111 5.158457,-14.96587 3.88476,-0.25472 10.18952,14.45641 8.78847,15.53904 z m 19.61485,-17.95903 c -1.33738,4.33053 -8.47005,7.38739 -14.71114,1.91053 -6.2411,-5.47688 -9.55268,-16.8764 -0.82791,-20.69748 8.27901,-3.63003 16.9401,14.3927 15.53905,18.78695 z"
       style="fill:#cccccc;stroke-width:0.63684541;fill-opacity:1"
       id="path5038" />
  </g>
</svg>
