<?xml version="1.0" encoding="UTF-8" standalone="no"?>
<!-- Created with Inkscape (http://www.inkscape.org/) -->

<svg
   xmlns:dc="http://purl.org/dc/elements/1.1/"
   xmlns:cc="http://creativecommons.org/ns#"
   xmlns:rdf="http://www.w3.org/1999/02/22-rdf-syntax-ns#"
   xmlns:svg="http://www.w3.org/2000/svg"
   xmlns="http://www.w3.org/2000/svg"
   xmlns:sodipodi="http://sodipodi.sourceforge.net/DTD/sodipodi-0.dtd"
   xmlns:inkscape="http://www.inkscape.org/namespaces/inkscape"
   sodipodi:docname="prenota.svg"
   inkscape:version="0.92.2 (5c3e80d, 2017-08-06)"
   id="svg8"
   version="1.1"
   viewBox="0 0 120 70"
   height="70mm"
   width="120mm">
  <sodipodi:namedview
     inkscape:window-maximized="1"
     inkscape:window-y="-9"
     inkscape:window-x="-9"
     inkscape:window-height="1001"
     inkscape:window-width="1920"
     showguides="false"
     showgrid="false"
     inkscape:current-layer="layer1"
     inkscape:document-units="mm"
     inkscape:cy="170.80333"
     inkscape:cx="379.95529"
     inkscape:zoom="0.70710678"
     inkscape:pageshadow="2"
     inkscape:pageopacity="0.0"
     borderopacity="1.0"
     bordercolor="#666666"
     pagecolor="#ffffff"
     id="base" />
  <defs
     id="defs2" />
  <metadata
     id="metadata5">
    <rdf:RDF>
      <cc:Work
         rdf:about="">
        <dc:format>image/svg+xml</dc:format>
        <dc:type
           rdf:resource="http://purl.org/dc/dcmitype/StillImage" />
        <dc:title></dc:title>
      </cc:Work>
    </rdf:RDF>
  </metadata>
  <g
     inkscape:label="Livello 1"
     inkscape:groupmode="layer"
     id="layer1"
     transform="translate(0,-227)">
    <g
       id="g912"
       transform="matrix(0.19531266,0,0,0.19531266,10.000039,211.99424)"
       style="fill:#cccccc;fill-opacity:1">
      <g
         id="g828"
         style="fill:#cccccc;fill-opacity:1">
        <g
           id="g826"
           style="fill:#cccccc;fill-opacity:1">
          <path
             id="path824"
             d="M 510.882,304.576 425.549,133.91 c -2.155,-4.331 -6.997,-6.741 -11.627,-5.696 L 93.986,192.192 c -0.235,0.043 -0.469,0.107 -0.725,0.171 -2.197,0.576 -4.075,1.835 -5.44,3.477 0,0 0,0 -0.021,0.021 -0.32,0.405 -0.64,0.853 -0.939,1.301 0,0.021 0,0.021 0,0.021 0,0 -0.021,0 -0.021,0.021 -0.149,0.256 -0.299,0.512 -0.427,0.789 L 1.122,368.555 c -2.624,5.269 -0.491,11.669 4.779,14.315 1.557,0.768 3.178,1.13 4.779,1.13 3.904,0 7.659,-2.176 9.536,-5.909 l 75.797,-151.573 75.776,151.595 c 2.155,4.309 6.912,6.677 11.627,5.696 l 320,-64 c 3.285,-0.661 6.059,-2.816 7.509,-5.781 1.45,-2.965 1.429,-6.465 -0.043,-9.452 z M 187.234,361.259 111.799,210.39 410.103,150.721 485.538,301.59 Z"
             inkscape:connector-curvature="0"
             style="fill:#cccccc;fill-opacity:1" />
        </g>
      </g>
      <g
         id="g834"
         style="fill:#cccccc;fill-opacity:1">
        <g
           id="g832"
           style="fill:#cccccc;fill-opacity:1">
          <path
             id="path830"
             d="m 405.154,200.598 c -1.173,-5.824 -7.061,-9.557 -12.544,-8.384 L 179.277,234.88 c -5.803,1.152 -9.557,6.763 -8.384,12.544 1.024,5.077 5.461,8.576 10.432,8.576 0.704,0 1.408,-0.064 2.112,-0.192 L 396.77,213.141 c 5.803,-1.151 9.558,-6.762 8.384,-12.543 z"
             inkscape:connector-curvature="0"
             style="fill:#cccccc;fill-opacity:1" />
        </g>
      </g>
      <g
         id="g840"
         style="fill:#cccccc;fill-opacity:1">
        <g
           id="g838"
           style="fill:#cccccc;fill-opacity:1">
          <path
             id="path836"
             d="m 319.821,264.598 c -1.173,-5.824 -7.04,-9.557 -12.544,-8.384 L 200.61,277.547 c -5.803,1.152 -9.557,6.763 -8.384,12.544 1.024,5.077 5.461,8.576 10.432,8.576 0.704,0 1.408,-0.064 2.112,-0.192 l 106.667,-21.333 c 5.802,-1.152 9.557,-6.763 8.384,-12.544 z"
             inkscape:connector-curvature="0"
             style="fill:#cccccc;fill-opacity:1" />
        </g>
      </g>
      <g
         id="g846"
         style="fill:#cccccc;fill-opacity:1">
        <g
           id="g844"
           style="fill:#cccccc;fill-opacity:1">
          <path
             id="path842"
             d="m 176.29,340.246 c -1.173,-5.824 -7.04,-9.6 -12.544,-8.384 L 8.61,362.88 c -5.803,1.152 -9.557,6.763 -8.384,12.544 1.024,5.078 5.461,8.576 10.432,8.576 0.704,0 1.408,-0.064 2.112,-0.213 L 167.906,352.79 c 5.803,-1.152 9.558,-6.763 8.384,-12.544 z"
             inkscape:connector-curvature="0"
             style="fill:#cccccc;fill-opacity:1" />
        </g>
      </g>
      <g
         id="g848"
         style="fill:#cccccc;fill-opacity:1" />
      <g
         id="g850"
         style="fill:#cccccc;fill-opacity:1" />
      <g
         id="g852"
         style="fill:#cccccc;fill-opacity:1" />
      <g
         id="g854"
         style="fill:#cccccc;fill-opacity:1" />
      <g
         id="g856"
         style="fill:#cccccc;fill-opacity:1" />
      <g
         id="g858"
         style="fill:#cccccc;fill-opacity:1" />
      <g
         id="g860"
         style="fill:#cccccc;fill-opacity:1" />
      <g
         id="g862"
         style="fill:#cccccc;fill-opacity:1" />
      <g
         id="g864"
         style="fill:#cccccc;fill-opacity:1" />
      <g
         id="g866"
         style="fill:#cccccc;fill-opacity:1" />
      <g
         id="g868"
         style="fill:#cccccc;fill-opacity:1" />
      <g
         id="g870"
         style="fill:#cccccc;fill-opacity:1" />
      <g
         id="g872"
         style="fill:#cccccc;fill-opacity:1" />
      <g
         id="g874"
         style="fill:#cccccc;fill-opacity:1" />
      <g
         id="g876"
         style="fill:#cccccc;fill-opacity:1" />
    </g>
  </g>
</svg>
