<?xml version="1.0" encoding="UTF-8" standalone="no"?>
<!-- Created with Inkscape (http://www.inkscape.org/) -->

<svg
   xmlns:dc="http://purl.org/dc/elements/1.1/"
   xmlns:cc="http://creativecommons.org/ns#"
   xmlns:rdf="http://www.w3.org/1999/02/22-rdf-syntax-ns#"
   xmlns:svg="http://www.w3.org/2000/svg"
   xmlns="http://www.w3.org/2000/svg"
   xmlns:sodipodi="http://sodipodi.sourceforge.net/DTD/sodipodi-0.dtd"
   xmlns:inkscape="http://www.inkscape.org/namespaces/inkscape"
   sodipodi:docname="tessera.svg"
   inkscape:version="0.92.1 r15371"
   id="svg8"
   version="1.1"
   viewBox="0 0 200 200"
   height="200mm"
   width="200mm">
  <sodipodi:namedview
     inkscape:window-maximized="1"
     inkscape:window-y="-8"
     inkscape:window-x="1912"
     inkscape:window-height="1017"
     inkscape:window-width="1920"
     showguides="false"
     showgrid="false"
     inkscape:current-layer="layer1"
     inkscape:document-units="mm"
     inkscape:cy="178.01935"
     inkscape:cx="271.13507"
     inkscape:zoom="5.6568542"
     inkscape:pageshadow="2"
     inkscape:pageopacity="0.0"
     borderopacity="1.0"
     bordercolor="#666666"
     pagecolor="#ffffff"
     id="base" />
  <defs
     id="defs2" />
  <metadata
     id="metadata5">
    <rdf:RDF>
      <cc:Work
         rdf:about="">
        <dc:format>image/svg+xml</dc:format>
        <dc:type
           rdf:resource="http://purl.org/dc/dcmitype/StillImage" />
        <dc:title></dc:title>
      </cc:Work>
    </rdf:RDF>
  </metadata>
  <g
     inkscape:label="Livello 1"
     inkscape:groupmode="layer"
     id="layer1"
     transform="translate(0,-97)">
    <path
       inkscape:connector-curvature="0"
       id="path5966"
       d="m 101.43063,286.27144 -0.88585,-0.43687 -0.43214,-0.47752 -0.432153,-0.47751 -37.274352,-64.15127 -37.274354,-64.15127 -0.147331,-0.55795 -0.147331,-0.55796 -0.0029,-0.72932 -0.0029,-0.72934 0.328755,-0.94454 0.328754,-0.94456 0.751552,-0.58519 0.751552,-0.5852 37.104292,-21.55481 37.104296,-21.55481 1.53439,-0.13563 1.53438,-0.13563 0.96974,0.66132 0.96973,0.66131 37.44238,64.4377 37.44238,64.43769 0.18036,1.0404 0.18037,1.04039 -0.30778,0.93258 -0.30778,0.93258 -0.90143,0.84032 -0.90143,0.84034 -36.82531,21.36975 -36.82531,21.36975 -0.78536,0.29741 -0.78534,0.29742 -0.74904,-0.006 -0.74903,-0.006 -0.88585,-0.43687 z m 40.36147,-24.23221 36.40684,-21.13051 0.32678,-0.31891 0.32678,-0.31891 0.0917,-0.46964 0.0917,-0.46966 -37.52275,-64.61167 -37.52277,-64.61167 -0.56333,-0.14426 -0.56333,-0.14426 -37.517386,21.78674 -37.51739,21.78673 -0.362084,0.47598 -0.362084,0.47598 0.125153,0.48218 0.125154,0.48219 37.432296,64.43397 37.432301,64.434 0.46688,0.11237 0.46688,0.11237 1.11592,-0.61625 1.11592,-0.61627 z m -43.227668,10.6104 -0.355465,-0.42831 0.167276,-0.63133 0.167273,-0.63132 22.005524,-12.76332 22.00553,-12.76332 h 0.58537 0.58538 l 0.28779,0.53775 0.2878,0.53775 -0.1454,0.37891 -0.14541,0.37892 -22.06859,12.82308 -22.068588,12.82308 -0.476514,0.0832 -0.476511,0.0832 z m -6.043182,-12.15927 -0.588898,-0.22572 -0.164307,-0.42818 -0.164311,-0.42818 0.474228,-0.54851 0.474227,-0.54852 21.677591,-12.57717 21.67759,-12.57716 h 0.28563 0.28562 l 0.46883,0.71552 0.46882,0.71552 -0.53214,0.50872 -0.53213,0.50872 -20.78399,12.05443 -20.783984,12.05443 -0.836939,0.5009 -0.836939,0.50092 z m -6.80604,-11.71428 -0.300589,-0.56164 0.233832,-0.41784 0.23383,-0.41783 21.608117,-12.55809 21.60812,-12.55808 0.66736,0.0768 0.66735,0.0768 0.21376,0.58288 0.21375,0.58287 -0.18366,0.28388 -0.18366,0.28388 -21.68631,12.59402 -21.686311,12.59401 h -0.5525 -0.552499 z m -5.521819,-10.65332 -0.334776,-0.33478 v -0.468 -0.468 l 0.348725,-0.28746 0.348725,-0.28746 32.458385,-18.85681 32.45839,-18.8568 h 0.52114 0.52114 l 0.30059,0.56165 0.30059,0.56166 -0.24941,0.44565 -0.2494,0.44566 -32.6042,18.93974 -32.6042,18.93973 h -0.440462 -0.440462 z m -5.885528,-10.65017 -0.350652,-0.42251 0.09116,-0.62063 0.09116,-0.62064 32.780109,-19.05443 32.78011,-19.05441 0.3423,-0.008 0.34228,-0.008 0.46884,0.71552 0.46881,0.71551 -0.53214,0.50049 -0.53213,0.50049 -32.34485,18.77101 -32.344845,18.771 -0.454751,0.11892 -0.454751,0.11892 -0.350653,-0.42251 z m -7.41708,-11.7538 -0.832218,-0.45094 -0.480861,-0.51615 -0.480861,-0.51614 -16.089373,-27.69244 -16.089374,-27.69245 -0.254927,-0.92327 -0.254928,-0.92327 0.301178,-1.11849 0.301177,-1.11848 0.756915,-0.70585 0.756914,-0.70583 32.485864,-18.8758 32.485865,-18.87581 1.410166,-0.11366 1.41016,-0.11366 1.07278,0.79268 1.07278,0.79267 16.05274,27.61898 16.05273,27.61899 0.37984,1.22792 0.37982,1.22793 -0.27391,1.0172 -0.2739,1.0172 -0.77164,0.7259 -0.77164,0.72592 -32.50113,18.87757 -32.501132,18.87758 -1.255408,0.13631 -1.255408,0.13632 z m 7.38824,-5.10636 4.603164,-2.65222 0.219035,-0.18871 0.219038,-0.18871 -0.614718,-1.37115 -0.614717,-1.37115 -0.04079,-0.13949 -0.04079,-0.13949 -0.3374,-1.11592 -0.337404,-1.11592 -0.156497,-2.65031 -0.156495,-2.6503 0.720179,-2.7898 0.720181,-2.7898 0.827038,-1.67387 0.827038,-1.67388 1.057028,-1.58819 1.057029,-1.5882 1.275029,-1.34108 1.27503,-1.3411 0.956807,-0.84037 0.956808,-0.84037 1.813368,-1.28324 1.813368,-1.28325 2.084313,-0.91259 2.084312,-0.91259 0.844973,-0.27067 0.844974,-0.27067 2.231837,-0.50803 2.231839,-0.50802 3.48724,0.0939 3.48725,0.0939 0.96454,0.18988 0.96455,0.18987 1.97072,0.78285 1.97071,0.78285 1.10995,0.64879 1.10994,0.64879 0.37814,0.28611 0.37814,0.28611 1.43522,1.42591 1.43524,1.42591 0.83693,1.00806 0.83694,1.00808 6.69551,-3.89709 6.69551,-3.89708 0.24199,-0.63896 0.24198,-0.63897 -16.40466,-28.23454 -16.40465,-28.23454 -0.4959,-0.1574 -0.49591,-0.15739 -32.023372,18.59189 -32.023367,18.59189 -1.046173,0.67714 -1.046174,0.67714 v 0.55034 0.55034 l 16.36661,28.16907 16.366612,28.16907 0.441912,0.10225 0.441912,0.10225 0.557959,-0.27256 0.557959,-0.27256 z m 9.206328,-33.43485 -0.418469,-0.13935 -1.377256,-0.56624 -1.377255,-0.56624 -0.854582,-0.59411 -0.854581,-0.59412 -1.673878,-1.70974 -1.673878,-1.70974 -0.873923,-1.22296 -0.873921,-1.22296 -0.206398,-0.69746 -0.206394,-0.69744 -0.226788,-0.28582 -0.226789,-0.28583 -0.471565,-1.38806 -0.471565,-1.38805 -0.171207,-0.83694 -0.171203,-0.83694 0.0185,-2.6503 0.0185,-2.65031 0.616473,-1.57796 0.616475,-1.57796 1.103485,-1.07235 1.103487,-1.07234 1.048353,-0.43852 1.048354,-0.4385 1.462063,-0.0703 1.462062,-0.0703 1.531571,0.44524 1.531573,0.44524 1.051569,0.60372 1.051572,0.60372 1.115919,0.8547 1.115918,0.8547 0.784183,0.83693 0.784187,0.83695 1.238416,1.72387 1.238419,1.72386 v 0.23313 0.23311 l 0.510516,0.9723 0.510513,0.97229 0.518007,1.81338 0.518006,1.81336 0.0017,2.65031 0.0017,2.65031 -0.709708,1.54712 -0.70971,1.54711 -0.938772,1.06921 -0.938775,1.0692 -1.21824,0.5222 -1.218237,0.5222 -1.859985,-0.022 -1.859982,-0.022 -0.41847,-0.13937 z"
       style="fill:#101010;stroke-width:0.27897966" />
  </g>
</svg>
